<?xml version="1.0" encoding="iso-8859-1"?>
<!-- Generator: Adobe Illustrator 19.0.0, SVG Export Plug-In . SVG Version: 6.00 Build 0)  -->
<svg version="1.1" id="Capa_1" xmlns="http://www.w3.org/2000/svg" xmlns:xlink="http://www.w3.org/1999/xlink" x="0px" y="0px"
	 viewBox="0 0 512 512" style="enable-background:new 0 0 512 512;" xml:space="preserve">
<g>
	<g>
		<path d="M391.264,0c-33.149,0-60.117,26.969-60.117,60.117v38.146c-8.85-5.133-19.112-8.088-30.059-8.088
			c-17.943,0-34.064,7.911-45.088,20.417c-11.025-12.505-27.145-20.417-45.088-20.417c-10.946,0-21.208,2.955-30.059,8.088V60.117
			C180.853,26.969,153.885,0,120.736,0S60.618,26.969,60.618,60.117v196.384v30.059v60.117C60.618,437.836,134.782,512,225.941,512
			h60.117c91.159,0,165.323-74.164,165.323-165.323V60.117C451.382,26.969,424.413,0,391.264,0z M271.029,150.294
			c0-16.574,13.484-30.059,30.059-30.059c16.574,0,30.059,13.484,30.059,30.059v69.207c-8.85-5.133-19.112-8.088-30.059-8.088
			h-30.059V150.294z M180.853,150.294c0-16.574,13.484-30.059,30.059-30.059c16.574,0,30.059,13.484,30.059,30.059v61.119h-60.117
			V150.294z M90.677,60.117c0-16.574,13.484-30.059,30.059-30.059c16.574,0,30.059,13.484,30.059,30.059v152.374
			c-23.394,3.361-44.323,14.445-60.117,30.58V60.117z M421.323,346.677c0,74.585-60.68,135.264-135.264,135.264h-60.117
			c-74.585,0-135.264-60.68-135.264-135.264v-30.059c0-41.436,33.711-75.147,75.147-75.147h135.264
			c16.574,0,30.059,13.484,30.059,30.059s-13.484,30.059-30.059,30.059H165.824c-8.3,0-15.029,6.729-15.029,15.029
			c0,8.3,6.729,15.029,15.029,15.029c58.01,0,105.205,47.195,105.205,105.205c0,8.3,6.729,15.029,15.029,15.029
			c8.3,0,15.029-6.729,15.029-15.029c0-42.45-19.661-80.388-50.349-105.205h50.349c33.149,0,60.117-26.969,60.117-60.117V60.117
			c0-16.574,13.484-30.059,30.059-30.059c16.574,0,30.059,13.484,30.059,30.059V346.677z"/>
	</g>
</g>
<g>
</g>
<g>
</g>
<g>
</g>
<g>
</g>
<g>
</g>
<g>
</g>
<g>
</g>
<g>
</g>
<g>
</g>
<g>
</g>
<g>
</g>
<g>
</g>
<g>
</g>
<g>
</g>
<g>
</g>
</svg>
